<svg id="Layer_1" height="512" viewBox="0 0 128 128" width="512" xmlns="http://www.w3.org/2000/svg" data-name="Layer 1"><path d="m98.2 93.137a6.1 6.1 0 1 0 6.1-6.1 6.1 6.1 0 0 0 -6.1 6.1zm8.695 0a2.6 2.6 0 1 1 -2.6-2.6 2.6 2.6 0 0 1 2.597 2.6z"/><path d="m115 102.092h-2.069a12.427 12.427 0 0 0 -5.642-21.031l6.769-36.238a1.75 1.75 0 0 0 -1.72-2.071h-7.848a12.665 12.665 0 0 0 -20.97-13.917 16.879 16.879 0 0 0 -10.82-1.059 9.989 9.989 0 0 0 -18.443 1.818 10.29 10.29 0 0 0 -8.511 13.156h-8.728l-1.648-4.681a4.366 4.366 0 0 0 -4.111-2.91h-15.651a4.358 4.358 0 1 0 0 8.717h12.564l16.8 47.735a4.358 4.358 0 0 0 2.944 2.742l3.869 7.738h-38.785a1.75 1.75 0 0 0 0 3.5h102a1.75 1.75 0 0 0 0-3.5zm-1.75-8.955a8.955 8.955 0 1 1 -8.956-8.955 8.966 8.966 0 0 1 8.956 8.955zm-64.44-53.345a6.778 6.778 0 0 1 6.7-6.792l.115.007a1.761 1.761 0 0 0 1.79-1.507 6.488 6.488 0 0 1 12.606-1.08 1.75 1.75 0 0 0 2.229 1.123 13.4 13.4 0 0 1 10.928 1.042 1.752 1.752 0 0 0 2.335-.568 9.166 9.166 0 1 1 14.827 10.734h-50.846a6.756 6.756 0 0 1 -.684-2.959zm-.363 6.459h.032s.018 0 .027 0h61.724l-6.436 34.456a12.43 12.43 0 0 0 -9.547 5.1h-42.078l-13.92-39.556zm-17.384-4.706a1.75 1.75 0 0 0 -1.651-1.169h-13.8a.858.858 0 1 1 0-1.717h15.65a.86.86 0 0 1 .81.573l17.21 48.905a1.75 1.75 0 0 0 1.651 1.169h41.515a12.349 12.349 0 0 0 -.415 1.717h-42.95a.859.859 0 0 1 -.81-.574zm23.926 59.126-3.074-6.147h10.748l-3.074 6.147a2.572 2.572 0 0 1 -4.6 0zm7.8 1.421 3.785-7.568h25.347a12.418 12.418 0 0 0 3.737 7.568z"/></svg>