<svg xmlns="http://www.w3.org/2000/svg" width="38" height="40" viewBox="0 0 38 40"><g><g><path fill="#292929" d="M0 36.6v-2.37c0-1.672 1.328-3.028 2.965-3.028H19.97c2.326 0 3.525 1.125 3.525 2.8v3.374c0 1.749-1.15 2.624-3.525 2.624H2.741c-1.73 0-2.74-1.175-2.74-3.4zm3.356.2H20.14a.226.226 0 0 0 .223-.227v-1.944c0-.126-.1-.228-.223-.228H3.356a.226.226 0 0 0-.223.228v1.944c0 .126.1.228.223.228zm9.735-23.992c.123 0 .223.101.223.227v7.428l-.886 2.434a.227.227 0 0 0 .21.308h1.243c.072 0 .14-.036.182-.095L30.258.066a.22.22 0 0 1 .297-.062l3.246 2a.23.23 0 0 1 .079.308l-.957 1.713a.231.231 0 0 0-.03.112V14.18c0 .126.1.228.224.228h.676c.135 0 .24.123.22.26L33.3 19.81a.225.225 0 0 1-.221.195h-.185v1.55c0 .085.046.163.12.202.671.349 1.368 1.04 1.368 2.23 0 .741-.248 1.307-.626 1.713a.23.23 0 0 0 .016.33l3.605 3.172c.157.138.061.4-.145.4h-.516a.22.22 0 0 1-.146-.054l-3.6-3.168a.217.217 0 0 0-.216-.044c-.306.109-.629.168-.948.168-.317 0-.632-.076-.922-.214a.219.219 0 0 0-.235.03l-3.905 3.232a.22.22 0 0 1-.14.05l-.455-.004c-.235-.002-.338-.304-.155-.455l3.981-3.296a.23.23 0 0 0 .045-.303c-.248-.37-.406-.841-.406-1.422 0-.442.35-.8.783-.8.432 0 .783.358.783.8 0 .11.011.205.03.286.04.162.231.226.358.121l.002-.002a.385.385 0 0 1 .502.008l.172.151a.22.22 0 0 0 .282.009c.172-.138.29-.357.29-.707 0-.723-.703-.898-.835-.923a.797.797 0 0 1-.654-.79v-2.042c0-.125-.1-.228-.223-.228h-.463a.224.224 0 0 1-.219-.183l-1.006-5.142a.227.227 0 0 1 .219-.273h.686a.226.226 0 0 0 .223-.228V9.535c0-.238-.313-.317-.421-.105l-8.952 17.594a.231.231 0 0 0-.025.105v.646c0 .126-.1.228-.223.228h-2.686a.226.226 0 0 0-.224.228v1.144c0 .126-.1.228-.223.228H6.49a.226.226 0 0 1-.223-.228V28.23c0-.126-.1-.228-.223-.228H1.79a.226.226 0 0 1-.223-.228v-14.74c0-.126.1-.227.223-.227zm6.998 4.158l-.01.014 2.614 1.737c.182.12.408-.068.33-.274l-1.243-3.256a.221.221 0 0 0-.389-.05zm11.238-2.787c0 .126.1.228.224.228h.336a.226.226 0 0 0 .224-.228V6.502c0-.238-.312-.317-.42-.107l-.338.649a.231.231 0 0 0-.026.106zm-.384-8.501l.96-1.863a.23.23 0 0 0-.074-.296L30.33 2.514c-.165-.111-.379.035-.342.233l.537 2.868c.04.211.319.254.417.063zm-2.417-1.319l-1.109 1.965a.23.23 0 0 0 .073.306l1.79 1.177c.168.11.382-.042.339-.24l-.681-3.143a.222.222 0 0 0-.412-.065zm-.125 5.163l-1.656-1.1c-.167-.11-.382.041-.34.24l.649 3.012a.222.222 0 0 0 .414.059l1.008-1.912a.23.23 0 0 0-.075-.299zm-3.374.394l-1.259 1.874a.231.231 0 0 0 .064.32l1.892 1.238c.166.109.38-.04.339-.239L25.429 10a.222.222 0 0 0-.402-.083zm.394 5.522l-2.087-1.46c-.18-.125-.411.06-.335.268l1.188 3.25c.068.185.32.2.408.024l.898-1.79a.23.23 0 0 0-.072-.292zm-3.803 7.314l1.042-1.877a.231.231 0 0 0-.065-.298l-2.586-1.886c-.183-.133-.422.062-.336.274l1.545 3.763a.221.221 0 0 0 .4.024zm-1.585 1.499l-1.86-4.096a.22.22 0 0 0-.383-.038l-1.514 2.108a.23.23 0 0 0 .069.332l3.374 1.987c.19.112.406-.091.314-.293zm-15.11-3.446h5.036a.225.225 0 0 0 .223-.228v-4.342c0-.126-.1-.229-.223-.229H4.923a.226.226 0 0 0-.224.229v4.342c0 .126.1.228.224.228zm32.854 13.596c.123 0 .223.102.223.228v1.144c0 .126-.1.228-.223.228H25.692a.226.226 0 0 1-.223-.228v-1.144c0-.126.1-.228.223-.228h1.12a.226.226 0 0 0 .224-.228V32.23c0-.126-.1-.228-.224-.228h-1.12a.226.226 0 0 1-.223-.228v-1.143c0-.126.1-.229.223-.229h12.085c.123 0 .223.103.223.229v1.143c0 .126-.1.228-.223.228h-1.12a.225.225 0 0 0-.223.228v1.943c0 .126.1.228.223.228z"/></g></g></svg>