<svg xmlns="http://www.w3.org/2000/svg" width="37" height="38" viewBox="0 0 37 38"><g><g><path fill="#292929" d="M0 34.77v-2.252c0-1.588 1.274-2.876 2.845-2.876h16.318c2.231 0 3.382 1.068 3.382 2.66v3.205c0 1.662-1.104 2.493-3.382 2.493H2.631C.97 38 0 36.884 0 34.77zm3.22.19h16.105a.215.215 0 0 0 .214-.216v-1.846a.215.215 0 0 0-.214-.217H3.22a.215.215 0 0 0-.215.217v1.846c0 .12.096.217.215.217zm9.341-22.793c.119 0 .215.097.215.216v7.057l-.85 2.312a.216.216 0 0 0 .2.292h1.194a.214.214 0 0 0 .174-.09L29.034.063a.213.213 0 0 1 .284-.06l3.116 1.9c.1.061.133.191.075.293l-.918 1.627a.218.218 0 0 0-.028.108v9.539c0 .12.096.217.214.217h.648c.13 0 .23.116.212.246l-.684 4.886a.215.215 0 0 1-.212.186h-.178v1.472c0 .08.044.155.116.192.643.332 1.312.99 1.312 2.12 0 .703-.238 1.24-.6 1.626a.218.218 0 0 0 .014.313l3.46 3.014c.15.131.059.38-.14.38h-.495a.213.213 0 0 1-.14-.052l-3.454-3.01a.21.21 0 0 0-.207-.04 2.773 2.773 0 0 1-.91.158c-.304 0-.606-.071-.885-.202a.212.212 0 0 0-.225.027l-3.747 3.071a.213.213 0 0 1-.135.049l-.436-.005c-.226-.002-.325-.289-.15-.432l3.821-3.131a.216.216 0 0 0 .044-.288c-.239-.352-.39-.8-.39-1.351 0-.42.336-.76.751-.76s.752.34.752.76c0 .105.01.195.029.271a.213.213 0 0 0 .343.116l.002-.002a.373.373 0 0 1 .481.008l.165.143a.212.212 0 0 0 .271.008c.165-.13.278-.34.278-.671 0-.687-.674-.853-.801-.878a.76.76 0 0 1-.627-.75v-1.94a.215.215 0 0 0-.214-.216H29.4a.215.215 0 0 1-.21-.174l-.965-4.885a.216.216 0 0 1 .21-.26h.658a.215.215 0 0 0 .214-.216V9.059c0-.227-.3-.301-.404-.1l-8.59 16.714a.218.218 0 0 0-.023.1v.614c0 .119-.096.216-.215.216H17.5a.215.215 0 0 0-.214.217v1.086c0 .12-.096.217-.215.217H6.226a.215.215 0 0 1-.214-.217V26.82a.215.215 0 0 0-.214-.217h-4.08a.215.215 0 0 1-.215-.216V12.384c0-.12.096-.217.214-.217zm6.715 3.951l-.009.013 2.508 1.65c.174.115.392-.064.316-.26L20.9 14.428a.213.213 0 0 0-.373-.049zM30.06 13.47c0 .12.096.217.214.217h.323a.215.215 0 0 0 .214-.217V6.177c0-.226-.298-.301-.403-.102l-.323.617a.22.22 0 0 0-.025.101zm-.369-8.076l.922-1.77a.218.218 0 0 0-.072-.281l-1.437-.955c-.158-.105-.364.034-.328.222l.515 2.724a.213.213 0 0 0 .4.06zm-2.319-1.253l-1.064 1.867a.218.218 0 0 0 .07.29l1.717 1.119c.161.105.367-.04.325-.229l-.653-2.985a.213.213 0 0 0-.395-.062zm-.12 4.905L25.663 8c-.16-.105-.367.04-.326.228l.622 2.86a.213.213 0 0 0 .398.057l.966-1.816a.218.218 0 0 0-.071-.284zm-3.238.374l-1.207 1.78a.218.218 0 0 0 .06.305l1.816 1.175c.16.104.364-.038.325-.226L24.4 9.498a.213.213 0 0 0-.386-.078zm.378 5.246L22.39 13.28c-.172-.119-.394.057-.321.255l1.14 3.087c.065.176.306.19.39.023l.863-1.7a.218.218 0 0 0-.07-.278zm-3.649 6.949l1-1.784a.218.218 0 0 0-.062-.283l-2.482-1.791c-.175-.127-.405.058-.322.26l1.482 3.575c.07.166.296.18.384.023zm-1.52 1.423l-1.786-3.89a.213.213 0 0 0-.367-.037l-1.452 2.002a.218.218 0 0 0 .066.316l3.237 1.888c.182.106.39-.087.302-.279zm-14.5-3.273h4.833a.215.215 0 0 0 .214-.216v-4.126a.215.215 0 0 0-.214-.217H4.724a.215.215 0 0 0-.215.217v4.126c0 .119.096.216.215.216zm31.525 12.916c.119 0 .215.097.215.217v1.086c0 .12-.096.217-.215.217H24.653a.215.215 0 0 1-.214-.217v-1.086c0-.12.096-.217.214-.217h1.075a.215.215 0 0 0 .214-.216v-1.847a.215.215 0 0 0-.214-.216h-1.075a.215.215 0 0 1-.214-.217V29.1c0-.12.096-.217.214-.217h11.595c.119 0 .215.097.215.217v1.086c0 .12-.096.217-.215.217h-1.074a.215.215 0 0 0-.215.216v1.847c0 .12.096.216.215.216z"/><path fill="#fff" d="M0 34.77v-2.252c0-1.588 1.274-2.876 2.845-2.876h16.318c2.231 0 3.382 1.068 3.382 2.66v3.205c0 1.662-1.104 2.493-3.382 2.493H2.631C.97 38 0 36.884 0 34.77zm3.22.19h16.105a.215.215 0 0 0 .214-.216v-1.846a.215.215 0 0 0-.214-.217H3.22a.215.215 0 0 0-.215.217v1.846c0 .12.096.217.215.217zm9.341-22.793c.119 0 .215.097.215.216v7.057l-.85 2.312a.216.216 0 0 0 .2.292h1.194a.214.214 0 0 0 .174-.09L29.034.063a.213.213 0 0 1 .284-.06l3.116 1.9c.1.061.133.191.075.293l-.918 1.627a.218.218 0 0 0-.028.108v9.539c0 .12.096.217.214.217h.648c.13 0 .23.116.212.246l-.684 4.886a.215.215 0 0 1-.212.186h-.178v1.472c0 .08.044.155.116.192.643.332 1.312.99 1.312 2.12 0 .703-.238 1.24-.6 1.626a.218.218 0 0 0 .014.313l3.46 3.014c.15.131.059.38-.14.38h-.495a.213.213 0 0 1-.14-.052l-3.454-3.01a.21.21 0 0 0-.207-.04 2.773 2.773 0 0 1-.91.158c-.304 0-.606-.071-.885-.202a.212.212 0 0 0-.225.027l-3.747 3.071a.213.213 0 0 1-.135.049l-.436-.005c-.226-.002-.325-.289-.15-.432l3.821-3.131a.216.216 0 0 0 .044-.288c-.239-.352-.39-.8-.39-1.351 0-.42.336-.76.751-.76s.752.34.752.76c0 .105.01.195.029.271a.213.213 0 0 0 .343.116l.002-.002a.373.373 0 0 1 .481.008l.165.143a.212.212 0 0 0 .271.008c.165-.13.278-.34.278-.671 0-.687-.674-.853-.801-.878a.76.76 0 0 1-.627-.75v-1.94a.215.215 0 0 0-.214-.216H29.4a.215.215 0 0 1-.21-.174l-.965-4.885a.216.216 0 0 1 .21-.26h.658a.215.215 0 0 0 .214-.216V9.059c0-.227-.3-.301-.404-.1l-8.59 16.714a.218.218 0 0 0-.023.1v.614c0 .119-.096.216-.215.216H17.5a.215.215 0 0 0-.214.217v1.086c0 .12-.096.217-.215.217H6.226a.215.215 0 0 1-.214-.217V26.82a.215.215 0 0 0-.214-.217h-4.08a.215.215 0 0 1-.215-.216V12.384c0-.12.096-.217.214-.217zm6.715 3.951l-.009.013 2.508 1.65c.174.115.392-.064.316-.26L20.9 14.428a.213.213 0 0 0-.373-.049zM30.06 13.47c0 .12.096.217.214.217h.323a.215.215 0 0 0 .214-.217V6.177c0-.226-.298-.301-.403-.102l-.323.617a.22.22 0 0 0-.025.101zm-.369-8.076l.922-1.77a.218.218 0 0 0-.072-.281l-1.437-.955c-.158-.105-.364.034-.328.222l.515 2.724a.213.213 0 0 0 .4.06zm-2.319-1.253l-1.064 1.867a.218.218 0 0 0 .07.29l1.717 1.119c.161.105.367-.04.325-.229l-.653-2.985a.213.213 0 0 0-.395-.062zm-.12 4.905L25.663 8c-.16-.105-.367.04-.326.228l.622 2.86a.213.213 0 0 0 .398.057l.966-1.816a.218.218 0 0 0-.071-.284zm-3.238.374l-1.207 1.78a.218.218 0 0 0 .06.305l1.816 1.175c.16.104.364-.038.325-.226L24.4 9.498a.213.213 0 0 0-.386-.078zm.378 5.246L22.39 13.28c-.172-.119-.394.057-.321.255l1.14 3.087c.065.176.306.19.39.023l.863-1.7a.218.218 0 0 0-.07-.278zm-3.649 6.949l1-1.784a.218.218 0 0 0-.062-.283l-2.482-1.791c-.175-.127-.405.058-.322.26l1.482 3.575c.07.166.296.18.384.023zm-1.52 1.423l-1.786-3.89a.213.213 0 0 0-.367-.037l-1.452 2.002a.218.218 0 0 0 .066.316l3.237 1.888c.182.106.39-.087.302-.279zm-14.5-3.273h4.833a.215.215 0 0 0 .214-.216v-4.126a.215.215 0 0 0-.214-.217H4.724a.215.215 0 0 0-.215.217v4.126c0 .119.096.216.215.216zm31.525 12.916c.119 0 .215.097.215.217v1.086c0 .12-.096.217-.215.217H24.653a.215.215 0 0 1-.214-.217v-1.086c0-.12.096-.217.214-.217h1.075a.215.215 0 0 0 .214-.216v-1.847a.215.215 0 0 0-.214-.216h-1.075a.215.215 0 0 1-.214-.217V29.1c0-.12.096-.217.214-.217h11.595c.119 0 .215.097.215.217v1.086c0 .12-.096.217-.215.217h-1.074a.215.215 0 0 0-.215.216v1.847c0 .12.096.216.215.216z"/></g></g></svg>